<svg xmlns="http://www.w3.org/2000/svg" width="315.597" height="47.271" viewBox="0 0 315.597 47.271"><defs><style>.a{fill:#444294;}</style></defs><g transform="translate(-10041 2159.535)"><path class="a" d="M8.6,46.1Q4,41.424,4,33.781T8.723,21.575a15.652,15.652,0,0,1,11.258-4.558A12.366,12.366,0,0,1,30.5,22.563v-18h6.872V50.3H30.5v-4.93Q26.7,50.788,19.4,50.79A14.659,14.659,0,0,1,8.6,46.1Zm2.268-12.048a10.3,10.3,0,0,0,3.008,7.673,9.727,9.727,0,0,0,7.057,2.958A9.087,9.087,0,0,0,27.8,41.7a10.725,10.725,0,0,0,2.823-7.671A11.28,11.28,0,0,0,27.8,26.2a8.956,8.956,0,0,0-6.931-3.145A9.33,9.33,0,0,0,13.815,26.2,11.045,11.045,0,0,0,10.869,34.056Z" transform="translate(10037 -2163.054)"/><path class="a" d="M28.9,40.384q-4.6-4.681-4.6-12.324T29.02,15.855A15.545,15.545,0,0,1,40.185,11.3q6.446,0,10.615,6.162v-5.67h6.874V44.576H50.8V39.213a13.091,13.091,0,0,1-5,4.345,13.6,13.6,0,0,1-6.1,1.511A14.659,14.659,0,0,1,28.9,40.384Zm2.268-12.048a10.3,10.3,0,0,0,3.008,7.673,9.73,9.73,0,0,0,7.057,2.958A9.087,9.087,0,0,0,48.1,35.978a10.726,10.726,0,0,0,2.825-7.671A11.281,11.281,0,0,0,48.1,20.48a8.955,8.955,0,0,0-6.93-3.145,9.331,9.331,0,0,0-7.057,3.145A11.045,11.045,0,0,0,31.166,28.336Z" transform="translate(10054.249 -2157.334)"/><path class="a" d="M52.593,26.827V44.576H45.724V11.789h6.869v5.979a12.277,12.277,0,0,1,4.573-4.747,12.982,12.982,0,0,1,15.215,1.665q3.4,3.391,3.406,9.8V44.576H68.912v-18q0-9.06-7.485-9.059a8.967,8.967,0,0,0-6.2,2.372Q52.593,22.266,52.593,26.827Z" transform="translate(10072.46 -2157.334)"/><path class="a" d="M72.028,50.3h-6.87V4.566h6.87V31.437L85.283,17.509h8.831l-12.39,13L95.037,50.3H86.69L77,35.938,72.028,40.99Z" transform="translate(10088.975 -2163.054)"/><path class="a" d="M83.925,11.457a4.209,4.209,0,0,1-1.289-3.08,4.21,4.21,0,0,1,1.289-3.082,4.28,4.28,0,0,1,6.134,0,4.21,4.21,0,0,1,1.289,3.082,4.209,4.209,0,0,1-1.289,3.08,4.28,4.28,0,0,1-6.134,0Zm6.441,39.321H83.5V17.99h6.87Z" transform="translate(10103.83 -2163.535)"/><path class="a" d="M91.6,32.965a5.524,5.524,0,0,1,0-7.7,5.467,5.467,0,0,1,7.67,0,5.524,5.524,0,0,1,0,7.7,5.462,5.462,0,0,1-7.67,0Z" transform="translate(10110.117 -2146.802)"/><path class="a" d="M114.554,45.07a16.446,16.446,0,0,1-11.721-4.654,16,16,0,0,1-4.906-12.172,15.857,15.857,0,0,1,5.12-12.233A17.766,17.766,0,0,1,115.534,11.3a16.9,16.9,0,0,1,12.455,5.113L123.94,21.4q-4.234-3.7-8.53-3.7a10.725,10.725,0,0,0-7.453,2.867,9.523,9.523,0,0,0-3.161,7.394,10.714,10.714,0,0,0,10.829,10.818q4.573,0,8.622-4.192l4.047,4.436A18.733,18.733,0,0,1,114.554,45.07Z" transform="translate(10116.825 -2157.334)"/><path class="a" d="M145.151,40.17a17.814,17.814,0,0,1-24.542,0A16.278,16.278,0,0,1,115.7,28.183,16.28,16.28,0,0,1,120.609,16.2a17.819,17.819,0,0,1,24.542,0,16.3,16.3,0,0,1,4.908,11.987A16.293,16.293,0,0,1,145.151,40.17Zm-19.664-4.253a10.636,10.636,0,0,0,14.786,0,10.612,10.612,0,0,0,2.912-7.734,10.62,10.62,0,0,0-2.912-7.736,10.641,10.641,0,0,0-14.786,0,10.622,10.622,0,0,0-2.915,7.736A10.615,10.615,0,0,0,125.487,35.917Z" transform="translate(10131.933 -2157.334)"/><path class="a" d="M140.634,46.1q-4.6-4.681-4.6-12.324t4.721-12.205a15.658,15.658,0,0,1,11.258-4.558,12.369,12.369,0,0,1,10.524,5.546v-18h6.872V50.3h-6.872v-4.93q-3.807,5.422-11.1,5.424A14.66,14.66,0,0,1,140.634,46.1Zm2.27-12.048a10.3,10.3,0,0,0,3.008,7.673,9.726,9.726,0,0,0,7.055,2.958,9.091,9.091,0,0,0,6.87-2.989,10.725,10.725,0,0,0,2.823-7.671,11.28,11.28,0,0,0-2.823-7.827,8.959,8.959,0,0,0-6.931-3.145A9.33,9.33,0,0,0,145.85,26.2,11.037,11.037,0,0,0,142.9,34.056Z" transform="translate(10149.211 -2163.054)"/><path class="a" d="M173.956,11.3a16.62,16.62,0,0,1,11.1,3.727,12.283,12.283,0,0,1,4.478,9.706l.061.124L165.794,34.9a10.573,10.573,0,0,0,8.683,3.946,11.221,11.221,0,0,0,9.049-4.314l4.049,4.5a18.475,18.475,0,0,1-13.743,6.042,16.876,16.876,0,0,1-11.9-4.623q-4.97-4.623-4.967-12.2a16.56,16.56,0,0,1,2.575-9.214,16.119,16.119,0,0,1,6.378-5.855A17.931,17.931,0,0,1,173.956,11.3ZM163.587,28.368a7.993,7.993,0,0,0,.061,1.171l18.1-7.827q-2.087-4.068-7.423-4.068a11.166,11.166,0,0,0-7.394,2.836A9.788,9.788,0,0,0,163.587,28.368Z" transform="translate(10166.997 -2157.334)"/></g></svg>